<svg height="24" viewBox="0 0 24 24" width="24" xmlns="http://www.w3.org/2000/svg"><g fill-rule="evenodd"><path d="m12.05987 5.449593c2.152093 0 2.406987.008176 3.25687.04688.78583.0358 1.212596.16686 1.496636.277005.376183.145943.644707.320308.926732.601815s.45671.549538.60289.92503c.11038.283518.24168.7095.277546 1.493854.038777.848354.046967 1.10278.046967 3.25092s-.00819 2.402565-.04696 3.250886c-.03586.784387-.16716 1.210368-.27754 1.493887-.14618.375492-.32086.643522-.60289.92503-.28202.281506-.55055.45587-.92673.601782-.28404.110176-.7108.241237-1.49663.277036-.84975.038706-1.10465.04688-3.25687.04688s-2.40711-.008174-3.25687-.04688c-.78583-.0358-1.21259-.16686-1.4966-.277036-.37621-.14591-.644733-.320276-.92676-.601783-.282024-.28151-.45671-.54954-.60289-.92503-.11038-.28352-.24168-.7095-.277545-1.49386-.038775-.84836-.046966-1.10278-.046966-3.25092s.00819-2.40257.046967-3.25089c.035868-.78439.16717-1.21037.27755-1.49389.14618-.3755.320865-.64353.60289-.92503.282026-.28151.55055-.45587.926764-.60182.28401-.11015.71077-.24121 1.49657-.27701.849914-.038708 1.10481-.04688 3.2569-.04688m0-1.449597c-2.18895 0-2.46339.00926-3.323064.048412-.85791.03909-1.44378.17507-1.95648.37396-.53001.205594-.97949.480682-1.42756.92793-.448075.44725-.72367.895906-.929645 1.42494-.19926.51176-.33549 1.096553-.37465 1.95289-.039252.858089-.048502 1.132059-.048502 3.316989s.009246 2.4589.04847 3.31696c.03916.85634.17539 1.44113.374648 1.95289.205975.529006.48157.97769.929643 1.42494.44808.44725.89756.72234 1.42757.927937.5127.19889 1.09857.33487 1.95649.37396.85968.03915 1.13412.04838 3.32307.04838s2.46343-.00923 3.32307-.04838c.857914-.03909 1.443784-.17507 1.956484-.37396.530008-.2056.97949-.48069 1.42756-.92794s.72367-.89591.929645-1.42494c.19926-.51176.335487-1.09655.37465-1.95289.039225-.85806.048503-1.13203.048503-3.31696s-.009276-2.4589-.0485-3.31696c-.03916-.85634-.17539-1.44113-.374646-1.95289-.20598-.52904-.48157-.97769-.929644-1.42494-.44807-.44725-.897554-.72234-1.42756-.92794-.5127-.19889-1.09857-.33487-1.956485-.37396-.859673-.03914-1.134148-.0484-3.323098-.0484"/><path d="m12.06243 7.916348c-2.285827 0-4.138874 1.849643-4.138874 4.13127 0 2.28163 1.853047 4.131272 4.138874 4.131272 2.285826 0 4.138873-1.849643 4.138873-4.13127 0-2.28163-1.853047-4.131272-4.138873-4.131272zm0 6.81298c-1.483775 0-2.686645-1.20066-2.686645-2.68171 0-1.481048 1.20287-2.681708 2.686645-2.681708s2.686644 1.20066 2.686644 2.68171c0 1.481048-1.20287 2.681708-2.686644 2.681708zm5.269565-6.976198c0 .533185-.433003.965425-.96717.965425-.53417 0-.967205-.43224-.967205-.965426 0-.53319.433036-.9654.967204-.9654s.96717.43221.96717.96539"/></g></svg>