<svg height="24" viewBox="0 0 24 24" width="24" xmlns="http://www.w3.org/2000/svg"><path d="m18.366728 18.338h-2.674412v-4.1775c0-.996-.017032-2.2775-1.389553-2.2775-1.392057 0-1.604447 1.0855-1.604447 2.2065v4.2485h-2.671408v-8.59h2.56371v1.1745h.037068c.356655-.6755 1.229258-1.3875 2.530148-1.3875 2.708475 0 3.208894 1.7785 3.208894 4.092zm-11.35536-9.7635c-.859077 0-1.55185-.6935-1.55185-1.5485 0-.8545.692773-1.548 1.55185-1.548.855572 0 1.549848.6935 1.549848 1.548 0 .855-.694276 1.5485-1.549847 1.5485zm-1.339458 9.7635h2.67742v-8.59h-2.67742zm14.026765-15.338h-15.368732c-.733848 0-1.329943.581-1.329943 1.298v15.403c0 .717.596095 1.299 1.329943 1.299h15.368732c.73535 0 1.33395-.582 1.33395-1.299v-15.403c0-.717-.5986-1.298-1.33395-1.298z" fill-rule="evenodd"/></svg>