<svg height="24" viewBox="0 0 24 24" width="24" xmlns="http://www.w3.org/2000/svg"><path d="m21.095868 7.13293c-.003757-.00287-.00662-.006635-.01109-.008786l-.00644-.003228-5.647355-2.830564c-.038283-.019008-.078354-.032098-.118962-.0425-.05098-.013268-.10286-.02116-.155094-.02116-.216277 0-.43166.10885-.548295.29857l-3.251312 5.29639 4.080284 6.64649 5.67544-9.244835c.018965-.030663.00984-.068858-.01717-.090377m-11.328334 1.40094v5.96381l5.450657 2.650543m.501547.55504 4.505583 2.21278c.586275.288044 1.06156.08654 1.06156-.45015v-10.649015zm-6.915714-10.72941-5.602004-2.748823c-.1012-.049567-.197495-.073102-.284524-.073102-.24546 0-.41752.186322-.41752.498878v11.869314c0 .31773.236922.693938.526533.836042l4.933935 2.420933c.126637.062048.247096.091467.355928.091467.30669 0 .521627-.232857.521627-.623687v-12.216995c0-.022823-.01308-.043863-.033975-.054026" fill-rule="evenodd"/></svg>