<svg height="24" viewBox="0 0 24 24" width="24" xmlns="http://www.w3.org/2000/svg"><path d="m8.31918 20.297607c7.58269 0 11.730104-6.270665 11.730104-11.708558 0-.17811 0-.355415-.012056-.531918.806842-.58253 1.50332-1.30381 2.056827-2.13007-.752418.33279-1.550594.551034-2.367883.647446.860623-.51428 1.504742-1.323153 1.812484-2.276086-.809262.47933-1.694616.817138-2.617854.998846-1.277915-1.356348-3.30851-1.68832-4.953145-.809762-1.644634.878557-2.494295 2.74915-2.07254 4.562856-3.3148-.165873-6.403192-1.728667-8.49657-4.29945-1.094224 1.880273-.535316 4.285698 1.276374 5.49325-.656075-.019408-1.29785-.196067-1.871156-.515067v.05215c.000537 1.958854 1.38388 3.646015 3.307482 4.033892-.606946.16522-1.243758.189373-1.861514.0706.540088 1.676313 2.087834 2.824673 3.85163 2.85774-1.459845 1.14521-3.263227 1.766896-5.119965 1.76503-.328013-.00063-.655706-.020453-.981394-.05937 1.885335 1.207662 4.079025 1.84824 6.31918 1.845257" fill-rule="evenodd"/></svg>